<?xml version='1.0' encoding='utf-8'?>
<svg xmlns="http://www.w3.org/2000/svg" version="1.1" id="Capa_1" x="0px" y="0px" viewBox="0 0 1920 1200" style="enable-background:new 0 0 1920 1200;"> <path d="M1691.3,572.4l-564.8,1.6l-23.7-90.6l-99.7,1.1c-0.1-2-0.2-4.1-0.4-6.5c-1.2-19.9-68.3-9.8-68.3-9.8 c-67.9-9.8-62.7-43.9-62.7-43.9c45.9-39.7,37.5-118.8,39.7-122.3c2.2-3.5,26.4-24.5,32.9-29.3c6.5-4.9,14.7,1.2,19.1,2.6 c32.2,10.7,22.4-16.3,22.4-16.3c9.4-2.9,3.3-13.9,3.3-13.9c9.7,1.2,5.9-15.7,6.9-15.7s7.8,2.7,10.4,0.6c8.1-6.6-6.5-29.5-6.5-29.5 s3.3,0.3,4.8-10.5c1.4-10.8-4.8-32.9-4.8-32.9l12.7,1.9c0,0-2.9-55.4-75.8-57.3c-72.9-1.9-63.8,77.1-63.8,94.9 c0,17.9,1.2,23.8-5.8,36.4l-11.3-2c0,0-78.8,7.7-126.1,85.6c-19.2,31.7-44.6,65.9-69.8,98.8c-55.2,32.5-128.3,65.2-128.3,65.2 s35.4,0.9,74.2,5.7c-14.8,20-27.1,37.9-34.5,52.2c-26,50-3.9,121.7-3.9,121.7l-6.2,120.9c-29.3-32.8-184.8-49.1-184.8-49.1 c-1.9-12-4-4.3-31.5-24.5c-27.4-20.2-52.7,36.1-83.7,83c-31,46.9,0,111.2,13.7,75.8c13.7-35.4,78.7-62.8,78.7-62.8l22.4,4.3 c62.1,2.9,179,67.1,224.5,66.4c45.5-0.7,84.5-145.8,84.5-145.8c11.6,5.9,33.9,85,33.9,85c-36.8,47.6-57.8,131.4-78.7,176.9 c-20.9,45.5-11.6,97.3-11.6,106c0,8.7,75.8-10,130.7-1.3c54.9,8.7,57-26.7,28.9-26c-28.2,0.7-78.7-15.2-80.9-21.7 c-2.2-6.5,8.7-33.9,8.7-33.9c-1.4-62.8,101.1-176.2,111.2-213c10.1-36.8-72.5-186.4-73.9-194.6c-1.4-8.2,9.7-28.9,9.7-28.9 c14-51.1,55.3-71,55.3-71l11.3,4.8c20.5,13,115.5,9.4,123.5,9.4s9.4-8.2,22.4,4c7.4,6.9,13.5-1,17.5-9.3l86.5-1l83.7,320.1 l32.7,132.5c-13.3,13.9-21.4,32.8-21.4,53.5c0,42.8,34.8,77.7,77.7,77.7c42.8,0,77.7-34.8,77.7-77.7c0-18-6.1-34.5-16.4-47.7h132.1 c-10.3,13.2-16.4,29.7-16.4,47.7c0,42.8,34.8,77.7,77.7,77.7s77.7-34.8,77.7-77.7c0-42.8-34.8-77.7-77.7-77.7c-3,0-5.9,0.2-8.8,0.5 v-0.5h-277L1197,845h422.7L1691.3,572.4z M1631.1,683.7l-75.7,1.1l21.5-82.1l75.6-0.2L1631.1,683.7z M1272.1,708.9l111.9-1.6V815 h-84.2L1272.1,708.9z M1279.2,815h-89.7l-27.3-104.5l89.3-1.3L1279.2,815z M1266.9,689l-22.3-85.4l139.4-0.4v84.1L1266.9,689z M1404,707l125.3-1.8L1500.7,815H1404V707z M1404,687v-83.8l152.1-0.4l-21.5,82.4L1404,687z M1224,603.7l22.4,85.6l-89.3,1.3 l-22.6-86.6L1224,603.7z M1299.9,1019.7c0,26.3-21.4,47.7-47.7,47.7c-26.3,0-47.7-21.4-47.7-47.7c0-26.3,21.4-47.7,47.7-47.7 C1278.5,972.1,1299.9,993.5,1299.9,1019.7z M1554.5,1019.7c0,26.3-21.4,47.7-47.7,47.7s-47.7-21.4-47.7-47.7 c0-26.3,21.4-47.7,47.7-47.7S1554.5,993.5,1554.5,1019.7z M1521.4,815l28.8-110.1l75.7-1.1L1596.6,815H1521.4z"/> </svg>